<svg id="tear" xmlns="http://www.w3.org/2000/svg" viewBox="0 0 1499 100"><title>tear-top</title><path d="M1499.5,63.27V53.91c-2.13.2-7.15,2.49-9.75,1.09-0.6-.3-1.12-3.7-2.12-4-3.2-1-.76,2.7-4.06,2-1.6-.3-4.53-3.4-6-4-1.6.4-4.72,1-5,1-3.7-.3-11.51-3.9-15,0-3-1.1-3-.9-4-4a7.81,7.81,0,0,0-4,4c-2.9-.6-5.2-1.3-7-3-6.5-.2-8.6.3-11,4-4.1-1.3-5.2-3.6-7-7-5.3-.2-7-2-10,1h-1v3c-4-.2-3.2-0.4-5.5,0-1,.3-0.75-0.2-1.25,2a35.9,35.9,0,0,1-13.12-2c-1.8,3.3-3.66,3.7-6.06,6-4.8-.6-7.16-3-10.06-4h-9c-1-2-2-2.7-3-4-3-1.2-3.5,1.4-6,0-3.2,1.5-3.8,2.4-6,4,0,0-18.6-3.1-20-4-2.2,1.3-2.1,2.6-3,5-10.1-.2-20.3.4-27-4-0.7-1.3-1.3-2.7-2-4-3.2-1.3-3.3,2.5-5,2-12.5-3.3-23.2,2.2-36-6a14.42,14.42,0,0,0-1,4c-2.9-1.2-8.9-1.8-12,0-5.9-.6-9.9-4.5-13-8-2.3,1.2-2,1.7-3,4-4.3-.6-12.4,2-15,1l-3-3c-4.5,1.5-8.5,3.4-12,4-2.6.5-12.9,2-13,2l-2-2c-2.2.9-2.5,3.9-4.5,5-5.3-.3-10.5-0.7-15.5-1v3c-10,4.3-17,5-26,8h-1c-4.1,0-7.4-2.5-10-2-3.3,1-6.7,2-10,3h-1a12.57,12.57,0,0,0-2-2c-2,.5-7.4,1.6-10,3-0.3,1-.7,2-1,3-3.9,2.1-8-1.7-11-1-7.4,1.6-19.6,3.3-25,4-3.3-.3-6.7-0.7-10-1-14.4.1-40.3,0-46,4-16.4.2-11.8-4.7-21-9-1.2-.6-14-1-14-1-0.2-.1-1.8-3.6-2-4-4.1,1.5-3.2,2.1-6,4-4.3-2.7-12.5,1.1-18-1-3.3-1.2-6.8-2.8-11-4-3.7,1-13.3,1.5-17,0-5.7,0-5.7-.3-7.5-4-2-.3-3.5-0.7-5.5-1v2L897,53c-1.7-.5-4.5-4-5.5-4h-3c-1,0-6.4,2.9-10,2-1.8-.4-5.2-3.5-9-2-4.3,1.7-15.6,7.1-20,7-1.8,0-6.8-2.3-10-1-6.6,2.6-9.4,4.5-16,3-7.8-1.8-21.1,4.4-26-2a11.21,11.21,0,0,0-2,3c-5.8-.8-16.4-6.1-18-6-2,.1-3.4,3.4-6,2-0.6-.3-1-3.7-2-4-3.2-1-.7,2.7-4,2-1.6-.3-4.5-3.4-6-4-1.6.4-4.7,1-5,1-3.7-.3-11.5-3.9-15,0-3-1.1-3-.9-4-4a7.81,7.81,0,0,0-4,4c-2.9-.6-5.2-1.3-7-3-6.5-.2-8.6.3-11,4-4.1-1.3-5.2-3.6-7-7-5.3-.2-7-2-10,1h-1v3c-4-.2-3.2-0.4-5.5,0-1,.3-0.75-0.2-1.25,2a35.9,35.9,0,0,1-13.12-2c-1.8,3.3-3.66,3.7-6.06,6-4.8-.6-7.16-3-10.06-4h-9c-1-2-2-2.7-3-4-3-1.2-3.5,1.4-6,0-3.2,1.5-3.8,2.4-6,4,0,0-18.6-3.1-20-4-2.2,1.3-2.1,2.6-3,5-10.1-.2-20.3.4-27-4-0.7-1.3-1.3-2.7-2-4-3.2-1.3-3.3,2.5-5,2-12.5-3.3-23.2,2.2-36-6a14.42,14.42,0,0,0-1,4c-2.9-1.2-8.9-1.8-12,0-5.9-.6-9.9-4.5-13-8-2.3,1.2-2,1.7-3,4-4.3-.6-12.4,2-15,1l-3-3c-4.5,1.5-8.5,3.4-12,4-2.6.5-12.9,2-13,2l-2-2c-2.2.9-2.5,3.9-4.5,5-5.3-.3-10.5-0.7-15.5-1v3c-10,4.3-17,5-26,8h-1c-4.1,0-7.4-2.5-10-2l-10,3h-1a12.57,12.57,0,0,0-2-2c-2,.5-7.4,1.6-10,3-0.3,1-.7,2-1,3-3.9,2.1-8-1.7-11-1-19.6,4.3-44.6,4-68,3-2.7-.1-8.3,3.1-11,4-8.5-1.9-21.1,4-25,0-2.4,1.4-10,5.9-14,5-2.7-.6-9.7-5.5-14-4-5,1.7-16,7.2-20,5-2.5,1.5-1.2-.2-2,3-3.5-.2-15-4-15-4-4.8,1.9-11.9,7.5-17,2-0.8,1.1-.1.9-0.5,3-3.6-.4-15.5-4.5-16.5-4v2a32.2,32.2,0,0,0-4.5,2c-3.1,1.2-8.75,1.3-11.25,2-1-1-3.82-3.6-5.12-4-2-.6-2.16,3.5-5.06,3-1.7-.3-6.13-3.5-9-3-2.3.4-2.72,2.5-7,1-2.4-.8.09-1.5-3-1l-1,1-3-3c-2.1-.6-9.5,1.1-13-1-1.2-.7-1.4-3.4-3-4-2.1-.8-11.9-0.2-13,0-0.7-1.3-.8-2.7-1.5-4-5.4-3.5-8.5-1.6-12.5-5V58c-1,.9-1.9,3.1-2.5,4-2.6,1.5-8.45-.3-10.25-3-3.6.9-3.82,3.1-6.12,4-7.5,2.8-34.46,1.9-39.06,0-5.7,0-5.73-.3-7.53-4C9.15,58.82,5.5,52.11-.5,53.91V100h1500V63.27Z"/></svg>